# xmcd
#
# Track frame offsets:
#	150
#	15240
#	34221
#	55712
#	70704
#	89511
#	111521
#	131068
#	147330
#	168425
#	188840
#	209420
#	220008
#	234985
#	250906
#	266623
#
# Disc length: 3856 seconds
#
# Revision: 1
# Processed by: cddbd v1.5.2PL0 Copyright (c) Steve Scherf et al.
# Submitted via: EasyCDDAExtractor 2010.4.0.0
#
DISCID=e50f0e10
DTITLE=Gino Paoli - Canzoni Da Ricordare [CD3)
DYEAR=2006
DGENRE=Pop
TTITLE0=Mediterraneo
TTITLE1=L'ufficio Delle Cose Perdute
TTITLE2=Questione Di Sopravvivenza
TTITLE3=I Viaggiatori
TTITLE4=Matto E Vigliacco
TTITLE5=Quattro Amici
TTITLE6=Un Sorriso Gratis
TTITLE7=Gorilla Al Sole
TTITLE8=Il Dio Distratto
TTITLE9=E M'innamorerai
TTITLE10=Il Cacciatore Di Sogni
TTITLE11=La Donna Dei Peccati
TTITLE12=Se Io Se Tu
TTITLE13=Un Altro Amore
TTITLE14=Fingere Di Te (Con Ornella Vanoni)
TTITLE15=Lo Specchio
EXTD=
EXTT0=
EXTT1=
EXTT2=
EXTT3=
EXTT4=
EXTT5=
EXTT6=
EXTT7=
EXTT8=
EXTT9=
EXTT10=
EXTT11=
EXTT12=
EXTT13=
EXTT14=
EXTT15=
PLAYORDER=
